<?xml version="1.0" standalone="no"?>
<!DOCTYPE svg PUBLIC "-//W3C//DTD SVG 20010904//EN"
 "http://www.w3.org/TR/2001/REC-SVG-20010904/DTD/svg10.dtd">
<svg version="1.0" xmlns="http://www.w3.org/2000/svg"
 width="360.000000pt" height="360.000000pt" viewBox="0 0 360.000000 360.000000"
 preserveAspectRatio="xMidYMid meet">

<g transform="translate(0.000000,360.000000) scale(0.100000,-0.100000)"
fill="#000000" stroke="none">
<path d="M2206 3378 c-14 -71 -77 -135 -166 -168 -21 -7 -111 -16 -220 -20
-118 -5 -210 -14 -255 -25 -85 -21 -198 -73 -259 -120 -52 -39 -68 -45 -41
-15 35 39 8 30 -65 -21 -81 -57 -195 -168 -205 -199 -4 -12 -15 -20 -29 -20
-32 0 -135 -64 -178 -111 -51 -56 -81 -122 -88 -199 l-7 -65 -2 60 -1 60 -21
-25 c-48 -59 -78 -144 -98 -276 -22 -140 -27 -158 -65 -219 l-24 -40 -4 30
c-3 30 -3 30 -25 -16 -17 -33 -23 -64 -24 -115 -1 -38 -4 -80 -8 -94 -13 -45
9 -95 96 -211 109 -146 135 -194 67 -123 -41 43 -116 94 -139 94 -4 0 13 -15
37 -33 51 -39 129 -163 154 -246 15 -47 17 -86 13 -251 -5 -238 -2 -530 6
-627 l7 -73 26 32 c14 17 49 41 77 54 110 49 195 164 195 264 0 56 29 100 66
100 13 0 24 4 24 9 0 21 -18 19 -53 -4 -44 -31 -47 -31 -47 -1 0 17 16 38 51
68 190 161 226 209 230 305 3 78 -14 84 -22 9 -7 -65 -29 -103 -64 -112 -39
-10 -57 1 -49 31 4 15 2 25 -5 25 -6 0 -11 -11 -11 -24 0 -62 -40 -116 -147
-200 -40 -31 -77 -65 -83 -76 -16 -30 -12 -101 11 -160 18 -47 19 -60 9 -93
-14 -47 -85 -121 -126 -131 -16 -4 -37 -15 -46 -23 -23 -20 -23 -19 6 65 22
66 23 72 7 94 -14 20 -16 56 -13 286 l2 263 39 57 c71 104 155 180 276 251 66
39 68 41 37 41 -40 0 -86 -19 -149 -60 -39 -25 -42 -26 -18 -6 17 15 69 49
116 77 136 80 200 154 215 246 3 21 0 52 -6 68 l-12 30 -13 -25 c-14 -23 -14
-22 -9 25 17 149 69 286 149 390 108 141 123 163 144 202 11 23 21 52 21 64 0
19 4 21 33 15 17 -3 73 -9 124 -12 87 -6 95 -5 147 20 39 19 58 35 62 52 3 13
12 24 18 24 21 0 133 73 177 115 58 54 104 130 124 201 9 32 35 99 58 149 41
90 59 177 39 189 -6 4 -20 -13 -32 -40 -11 -26 -23 -45 -26 -41 -3 3 0 16 8
29 16 29 18 232 2 248 -8 8 -13 2 -18 -22z m-15 -106 c-21 -41 -64 -83 -110
-106 -26 -14 -73 -26 -277 -70 -173 -38 -307 -101 -413 -196 -18 -16 -36 -28
-40 -25 -10 6 -90 -116 -106 -161 -7 -21 -18 -40 -25 -42 -18 -6 85 188 127
239 30 37 31 39 5 14 -32 -31 -125 -177 -137 -215 -4 -12 -9 -20 -11 -17 -8 8
40 122 73 175 46 73 117 147 183 191 60 41 187 98 196 88 3 -3 25 1 47 9 29
10 77 14 152 13 83 -1 123 2 164 16 68 23 140 71 166 111 27 42 31 25 6 -24z
m28 -54 c-7 -24 -13 -47 -14 -53 0 -5 -6 -9 -11 -8 -6 1 -11 -4 -11 -12 0 -8
4 -12 9 -9 14 9 9 -9 -11 -43 -42 -68 -172 -150 -313 -197 -77 -26 -318 -79
-325 -72 -4 4 68 29 252 85 55 17 111 38 125 47 18 11 19 14 5 9 -11 -3 -87
-26 -170 -51 -185 -55 -223 -69 -283 -106 l-47 -29 35 30 c45 39 141 89 262
136 54 21 96 40 94 43 -12 12 -245 -83 -314 -128 l-47 -30 35 30 c19 17 72 49
117 72 45 23 80 44 78 47 -3 2 -47 -16 -98 -42 -84 -42 -146 -90 -194 -150
-10 -12 -36 -33 -58 -46 l-40 -23 30 33 c39 43 132 130 157 148 11 7 61 35
111 62 107 57 110 66 4 13 -114 -58 -177 -102 -246 -172 -51 -52 -60 -58 -45
-31 10 19 54 69 97 112 62 61 96 86 170 122 94 45 255 90 358 99 64 6 101 16
155 44 49 25 121 101 131 139 l8 28 3 -27 c2 -14 -2 -46 -9 -70z m-651 -82
c-117 -48 -243 -161 -313 -280 -15 -25 -44 -89 -66 -143 -22 -54 -44 -102 -50
-107 -22 -23 -7 -27 18 -5 14 13 2 -5 -28 -41 -133 -159 -244 -389 -314 -654
-11 -38 -21 -64 -23 -58 -2 6 8 51 23 99 80 266 151 419 266 569 26 34 45 64
42 68 -3 3 10 45 30 93 19 49 38 99 41 113 12 46 -36 -52 -74 -153 -43 -114
-54 -131 -34 -52 8 31 13 59 10 62 -3 3 -12 -21 -21 -53 -23 -82 -23 -83 -24
-44 -1 50 31 166 64 230 42 83 75 131 85 125 5 -3 12 0 16 6 4 8 3 9 -4 5 -7
-4 -12 -3 -12 2 0 13 25 33 33 27 4 -3 5 -3 4 0 -8 11 81 95 131 124 61 36 71
38 51 13 -8 -10 -4 -7 9 6 12 13 22 21 22 17 0 -3 11 2 25 11 28 18 101 42
130 43 11 0 -6 -10 -37 -23z m678 -60 c-33 -85 -176 -189 -366 -265 -41 -16
-148 -48 -238 -71 -192 -48 -295 -81 -374 -121 -32 -16 -58 -27 -58 -24 0 12
134 70 278 120 557 191 599 208 673 274 24 21 54 57 67 80 31 56 21 52 -12 -4
-33 -55 -113 -117 -196 -151 -34 -14 -64 -23 -66 -21 -2 2 24 18 59 36 94 50
164 107 200 161 39 59 58 51 33 -14z m-1059 -138 c-75 -106 -147 -270 -147
-337 0 -21 -2 -23 -10 -11 -8 12 -10 10 -10 -8 0 -13 -4 -21 -9 -17 -5 3 -14
-18 -19 -47 -8 -46 -9 -35 -10 81 -2 115 1 140 19 180 23 53 87 123 103 114 6
-3 8 -2 3 2 -8 10 31 55 48 55 6 0 22 11 35 25 44 46 42 25 -3 -37z m986 -30
c-18 -62 -49 -99 -118 -139 -27 -16 -45 -29 -40 -29 14 0 75 38 103 63 35 32
26 1 -13 -41 -19 -22 -32 -41 -29 -44 10 -10 -99 -97 -160 -127 l-61 -30 -230
-3 -230 -4 85 17 c47 9 74 18 60 18 -14 1 -36 4 -50 7 -20 5 -22 4 -10 -6 12
-9 10 -10 -13 -6 -36 8 -171 -26 -271 -69 -100 -42 -70 -16 39 35 66 31 237
85 368 116 15 3 26 8 24 10 -9 9 -215 -39 -304 -71 -53 -19 -92 -31 -87 -26
19 17 212 89 314 115 186 49 353 108 458 161 56 29 97 45 90 37 -7 -9 6 -2 29
16 24 19 45 38 48 43 13 20 12 7 -2 -43z m-243 -28 c-8 -5 -22 -9 -30 -9 -10
0 -8 3 5 9 27 12 43 12 25 0z m-357 -120 c-127 -43 -260 -93 -295 -109 -57
-28 -61 -29 -36 -7 14 13 68 40 120 61 95 37 400 132 428 133 8 0 -89 -35
-217 -78z m-26 24 c-3 -3 -12 -4 -19 -1 -8 3 -5 6 6 6 11 1 17 -2 13 -5z
m-582 -34 c-15 -29 -21 -55 -7 -33 4 6 7 -33 7 -87 0 -112 -10 -140 -20 -53
-9 87 -15 97 -10 18 3 -38 7 -108 10 -155 l5 -85 -22 102 c-12 57 -24 101 -26
98 -2 -2 4 -49 13 -104 9 -55 15 -110 12 -123 -4 -19 -4 -19 -6 6 0 16 -8 65
-17 109 -15 75 -15 127 0 261 2 18 15 39 32 53 39 31 48 29 29 -7z m505 13
c-8 -3 -37 -14 -64 -24 -27 -10 -45 -14 -40 -9 12 12 84 39 104 39 13 -1 13
-1 0 -6z m-578 -36 c-8 -9 -10 -85 -6 -244 3 -152 1 -234 -6 -238 -6 -4 -10
12 -11 42 -1 26 -4 59 -8 73 -4 14 -6 -33 -5 -105 2 -94 1 -117 -5 -84 -5 26
-22 65 -37 89 -16 23 -36 72 -46 109 -9 36 -17 55 -17 41 0 -14 11 -56 25 -95
41 -114 54 -167 53 -225 l-2 -55 -7 57 c-8 62 -39 148 -78 217 -34 58 -40 173
-14 246 9 28 23 49 30 48 6 -2 12 6 12 17 0 23 66 100 85 100 7 0 18 7 25 15
7 9 15 13 18 10 3 -2 0 -10 -6 -18z m853 -197 c-3 -5 -2 -10 4 -10 5 0 13 5
16 10 8 13 75 13 75 1 0 -5 -15 -20 -32 -33 -30 -21 -44 -23 -133 -22 -55 1
-147 5 -205 10 l-105 8 75 13 75 12 -67 -5 c-97 -7 -211 -39 -310 -87 -49 -23
-88 -42 -88 -40 0 1 21 16 47 34 109 76 288 117 506 118 96 1 146 -2 142 -9z
m-718 -32 c-3 -8 -6 -5 -6 6 -1 11 2 17 5 13 3 -3 4 -12 1 -19z m-351 -70 c-3
-35 -3 -55 2 -45 5 12 21 -14 60 -102 44 -102 53 -131 57 -198 4 -68 3 -72 -5
-33 -10 47 -50 153 -56 148 -2 -2 8 -41 22 -88 20 -71 33 -136 17 -90 -11 33
-87 190 -90 187 -2 -2 10 -33 26 -68 32 -70 56 -151 65 -214 5 -35 3 -33 -14
18 -17 48 -60 133 -60 117 0 -3 14 -43 30 -90 16 -47 29 -94 29 -105 0 -11 -7
1 -14 27 -7 26 -40 105 -73 175 -76 164 -87 205 -68 275 21 80 27 92 37 76 7
-10 9 -9 9 4 0 22 18 68 26 68 3 0 3 -28 0 -62z m734 11 c-19 -16 -90 -56
-158 -89 -164 -80 -256 -134 -310 -184 -35 -32 -42 -36 -32 -16 26 48 126 136
218 189 50 30 92 56 92 58 0 13 -184 -95 -229 -134 -64 -56 -53 -26 13 35 74
69 272 158 376 171 30 4 57 5 60 3 3 -2 -11 -17 -30 -33z m9 -26 c-30 -32 -58
-58 -64 -58 -5 -1 -9 -7 -7 -13 1 -8 -5 -12 -15 -10 -11 2 -17 -2 -15 -11 2
-8 -3 -11 -12 -8 -9 4 -15 1 -13 -6 1 -7 -6 -11 -15 -11 -10 1 -15 -2 -12 -7
3 -5 -60 -41 -140 -80 -96 -47 -164 -88 -203 -122 -32 -28 -49 -40 -38 -27 48
59 97 94 207 147 64 32 116 59 114 60 -7 7 -181 -72 -230 -104 l-51 -33 38 34
c36 32 174 113 342 200 39 20 90 54 115 75 25 21 47 37 49 35 2 -2 -20 -30
-50 -61z m43 -5 c-8 -31 -109 -128 -190 -181 -37 -24 -123 -71 -192 -105 -76
-37 -147 -80 -180 -109 l-54 -48 34 49 c47 66 109 110 274 195 162 84 216 119
271 178 22 23 41 42 42 43 0 0 -1 -10 -5 -22z m-545 -130 c-3 -8 -6 -5 -6 6
-1 11 2 17 5 13 3 -3 4 -12 1 -19z m443 -20 c-14 -11 -24 -24 -23 -29 2 -4
-17 -25 -42 -46 -29 -24 -43 -43 -40 -53 8 -24 -11 -41 -130 -121 -136 -90
-228 -180 -288 -284 -49 -83 -63 -95 -26 -22 69 135 169 241 305 325 89 55
150 102 131 102 -4 0 -9 0 -12 0 -3 0 -5 -3 -6 -7 -1 -13 -21 -33 -31 -33 -6
0 -4 8 3 17 12 14 10 14 -13 -1 -32 -21 -36 -28 -10 -20 14 5 14 3 -2 -10 -24
-19 -40 -21 -30 -3 4 7 3 9 -2 4 -5 -5 -9 -14 -9 -19 0 -6 -6 -13 -14 -16 -9
-3 -11 0 -6 8 5 9 4 11 -4 6 -6 -4 -8 -12 -5 -18 5 -7 1 -9 -9 -5 -10 4 -20 0
-26 -11 -6 -9 -11 -13 -11 -9 0 14 -87 -51 -142 -105 -28 -29 -68 -79 -89
-112 -50 -76 -49 -64 1 33 68 131 189 238 381 336 60 31 109 58 109 61 0 3 -6
2 -12 -2 -18 -10 0 8 36 34 37 28 49 28 16 0z m-756 -63 c4 -14 26 -67 50
-118 47 -98 71 -188 80 -302 l6 -70 -19 73 c-11 40 -45 125 -76 190 -30 65
-55 125 -56 133 0 9 -2 10 -5 2 -3 -6 16 -59 41 -118 53 -121 85 -211 84 -234
0 -9 -8 9 -18 39 -10 30 -33 87 -51 125 -17 39 -40 88 -50 110 -27 59 -32 83
-20 90 5 3 10 31 10 61 0 56 12 65 24 19z m466 -99 c0 -2 -28 -21 -63 -44 -67
-43 -108 -84 -152 -151 -34 -51 -44 -47 -16 6 24 49 122 140 182 170 47 24 49
25 49 19z m-424 -230 c19 -48 34 -91 34 -94 0 -3 -16 21 -36 54 -54 91 -61 88
-14 -6 44 -88 70 -167 69 -210 0 -18 -6 -10 -19 26 -10 28 -34 82 -53 120 -41
82 -92 167 -82 139 4 -11 9 -27 12 -35 6 -19 -41 35 -58 67 -10 18 -10 28 1
50 l13 28 7 -38 c11 -59 19 -55 13 7 -4 39 -2 56 6 56 6 0 11 12 11 28 1 22 7
14 31 -38 17 -36 46 -105 65 -154z m563 158 c-13 -15 -55 -51 -94 -82 -136
-107 -199 -177 -289 -322 -25 -41 -46 -72 -46 -68 0 18 66 150 104 207 64 95
143 171 243 235 98 61 118 68 82 30z m-18 -62 c-36 -71 -92 -136 -251 -292
-128 -126 -153 -146 -132 -110 81 141 183 265 302 366 47 40 88 73 93 74 4 0
-1 -17 -12 -38z m-722 -38 c1 14 7 10 26 -18 14 -20 42 -60 64 -89 45 -61 76
-120 102 -196 21 -60 25 -106 5 -51 -24 65 -68 144 -103 188 -20 24 -48 67
-64 95 -16 29 -29 48 -29 44 0 -13 30 -68 70 -127 51 -75 104 -183 124 -252
19 -68 21 -98 1 -45 -14 42 -93 176 -127 217 -18 23 2 -17 89 -175 48 -88 40
-89 -16 -2 -27 41 -54 78 -60 81 -20 13 -82 129 -95 180 -9 33 -12 77 -8 126
5 63 7 69 13 40 3 -19 7 -26 8 -16z m675 -86 c-47 -78 -113 -149 -229 -246
-49 -41 -105 -91 -123 -111 l-34 -36 33 45 c18 25 103 117 189 205 86 88 165
175 176 193 10 18 20 28 22 22 2 -5 -13 -38 -34 -72z m-570 -4 c3 -8 2 -12 -4
-9 -6 3 -10 10 -10 16 0 14 7 11 14 -7z m590 -16 c-5 -13 -7 -44 -5 -71 5 -86
-44 -144 -194 -227 -82 -45 -155 -101 -200 -152 -28 -31 -34 -35 -21 -13 29
47 66 83 136 133 107 76 180 143 227 210 25 35 43 65 40 68 -3 3 -13 -9 -23
-27 -27 -54 -113 -137 -216 -211 -54 -38 -117 -91 -140 -116 -36 -41 -39 -43
-22 -13 10 18 59 70 109 115 150 135 230 218 270 279 38 58 53 68 39 25z
m-380 -32 c-3 -21 -8 -35 -11 -32 -2 2 -1 20 3 40 3 21 8 35 11 32 2 -2 1 -20
-3 -40z m-284 -147 c13 -19 38 -52 56 -74 33 -42 100 -155 91 -155 -3 0 -16
19 -30 43 -14 23 -49 71 -77 107 -82 101 -110 150 -110 189 0 35 1 35 24 -20
12 -31 33 -71 46 -90z m259 27 c-7 -36 -14 -64 -17 -61 -2 2 1 34 8 70 7 36
14 64 17 62 2 -3 -2 -34 -8 -71z m419 -6 c-14 -27 -21 -47 -16 -44 4 3 8 1 8
-3 0 -11 -77 -84 -115 -110 -66 -43 -108 -66 -101 -55 4 7 3 12 -1 12 -16 0
-118 -73 -167 -119 -47 -44 -48 -45 -22 -9 33 45 144 130 242 187 85 48 155
122 174 182 9 29 15 38 18 26 2 -10 -7 -40 -20 -67z m-443 -135 c-4 -31 -10
-54 -12 -51 -3 3 -2 30 2 61 3 31 9 54 12 52 2 -3 1 -31 -2 -62z m-48 -17 c-3
-8 -6 -5 -6 6 -1 11 2 17 5 13 3 -3 4 -12 1 -19z m-58 -163 c22 -46 41 -89 41
-97 -1 -7 -14 15 -30 50 -16 35 -50 93 -76 130 -44 64 -44 65 -11 34 19 -18
53 -71 76 -117z m83 8 c-37 -333 -49 -865 -20 -847 3 2 3 -6 0 -18 -5 -19 -7
-20 -10 -6 -2 10 -8 18 -13 18 -21 0 -4 521 26 802 8 75 15 143 15 149 0 7 3
10 6 6 3 -3 1 -50 -4 -104z m305 64 c-10 -7 -44 -29 -76 -49 -75 -48 -145
-110 -192 -171 -22 -27 -39 -44 -39 -38 0 19 101 131 158 177 31 24 79 56 106
69 52 26 74 32 43 12z m-137 -21 c0 -2 -8 -10 -17 -17 -16 -13 -17 -12 -4 4
13 16 21 21 21 13z m-80 -73 c-54 -61 -68 -73 -50 -48 17 25 83 95 88 95 3 0
-15 -21 -38 -47z m385 -293 c-10 -11 -28 -20 -39 -19 -21 0 -21 0 -1 9 12 4
27 15 34 24 8 9 16 14 19 11 3 -3 -3 -14 -13 -25z m-248 -197 c-52 -51 -68
-92 -55 -138 5 -16 12 -38 15 -47 3 -10 1 -18 -4 -18 -5 0 -16 24 -23 54 -17
70 -5 102 59 156 62 54 66 50 8 -7z"/>
<path d="M1878 3153 c6 -2 18 -2 25 0 6 3 1 5 -13 5 -14 0 -19 -2 -12 -5z"/>
<path d="M1454 3024 l-39 -35 43 32 c38 30 48 39 39 39 -2 0 -21 -16 -43 -36z"/>
<path d="M2189 3194 c-7 -9 -36 -29 -64 -45 -27 -16 -45 -29 -39 -29 14 0 96
53 113 73 7 9 11 17 8 17 -2 0 -11 -7 -18 -16z"/>
<path d="M2118 3121 c-66 -38 -73 -48 -11 -17 28 14 54 30 58 36 8 13 9 13
-47 -19z"/>
<path d="M2119 3073 c-13 -16 -12 -17 4 -4 9 7 17 15 17 17 0 8 -8 3 -21 -13z"/>
<path d="M2020 3070 c-8 -5 -55 -24 -103 -41 -48 -17 -86 -33 -84 -36 2 -2 41
10 86 27 84 31 144 59 126 59 -5 1 -17 -4 -25 -9z"/>
<path d="M1780 3050 c-8 -5 -10 -10 -5 -10 6 0 17 5 25 10 8 5 11 10 5 10 -5
0 -17 -5 -25 -10z"/>
<path d="M1700 3020 c-8 -5 -10 -10 -5 -10 6 0 17 5 25 10 8 5 11 10 5 10 -5
0 -17 -5 -25 -10z"/>
<path d="M2000 3000 c-9 -6 -10 -10 -3 -10 6 0 15 5 18 10 8 12 4 12 -15 0z"/>
<path d="M1955 2980 c-3 -5 -2 -10 4 -10 5 0 13 5 16 10 3 6 2 10 -4 10 -5 0
-13 -4 -16 -10z"/>
<path d="M1364 3038 l-19 -23 23 19 c21 18 27 26 19 26 -2 0 -12 -10 -23 -22z"/>
<path d="M1299 2963 l-24 -28 28 24 c25 23 32 31 24 31 -2 0 -14 -12 -28 -27z"/>
<path d="M1254 2908 l-19 -23 23 19 c12 11 22 21 22 23 0 8 -8 2 -26 -19z"/>
<path d="M1180 2870 c-6 -11 -8 -20 -6 -20 3 0 10 9 16 20 6 11 8 20 6 20 -3
0 -10 -9 -16 -20z"/>
<path d="M1157 2833 c-4 -3 -7 -11 -7 -17 0 -6 5 -5 12 2 6 6 9 14 7 17 -3 3
-9 2 -12 -2z"/>
<path d="M1136 2785 c-9 -26 -7 -32 5 -12 6 10 9 21 6 23 -2 3 -7 -2 -11 -11z"/>
<path d="M1106 2694 c-4 -14 -5 -28 -3 -31 3 -2 8 8 11 23 4 14 5 28 3 31 -3
2 -8 -8 -11 -23z"/>
<path d="M1159 2933 c-40 -42 -79 -97 -79 -109 0 -5 12 9 26 31 15 22 43 57
62 78 20 20 34 37 31 37 -3 0 -21 -17 -40 -37z"/>
<path d="M1046 2815 c-9 -26 -7 -32 5 -12 6 10 9 21 6 23 -2 3 -7 -2 -11 -11z"/>
<path d="M1066 2795 c-9 -26 -7 -32 5 -12 6 10 9 21 6 23 -2 3 -7 -2 -11 -11z"/>
<path d="M1046 2734 c-4 -14 -5 -28 -3 -31 3 -2 8 8 11 23 4 14 5 28 3 31 -3
2 -8 -8 -11 -23z"/>
<path d="M1012 2665 c0 -16 2 -22 5 -12 2 9 2 23 0 30 -3 6 -5 -1 -5 -18z"/>
<path d="M1032 2660 c0 -14 2 -19 5 -12 2 6 2 18 0 25 -3 6 -5 1 -5 -13z"/>
<path d="M2052 2864 c-13 -9 -58 -36 -100 -60 -42 -24 -72 -44 -66 -44 11 0
172 94 189 111 14 14 2 11 -23 -7z"/>
<path d="M1815 2739 c-22 -10 -29 -16 -15 -13 28 7 80 33 65 33 -5 0 -28 -9
-50 -20z"/>
<path d="M1970 2730 c-8 -5 -10 -10 -5 -10 6 0 17 5 25 10 8 5 11 10 5 10 -5
0 -17 -5 -25 -10z"/>
<path d="M1735 2710 c-13 -6 -15 -9 -5 -9 8 0 22 4 30 9 18 12 2 12 -25 0z"/>
<path d="M1885 2699 c-27 -10 -37 -17 -21 -14 31 7 97 33 81 33 -5 0 -32 -8
-60 -19z"/>
<path d="M2027 2695 c-21 -15 -56 -35 -80 -46 -23 -10 -31 -16 -17 -13 26 6
91 41 125 68 32 25 13 18 -28 -9z"/>
<path d="M1665 2690 c-13 -5 -14 -9 -5 -9 8 0 24 4 35 9 13 5 14 9 5 9 -8 0
-24 -4 -35 -9z"/>
<path d="M1778 2663 c7 -3 16 -2 19 1 4 3 -2 6 -13 5 -11 0 -14 -3 -6 -6z"/>
<path d="M1670 2640 c-20 -6 -21 -8 -5 -8 11 0 29 3 40 8 25 11 -1 11 -35 0z"/>
<path d="M1580 2620 c-20 -6 -21 -8 -5 -8 11 0 31 4 45 8 20 6 21 8 5 8 -11 0
-31 -4 -45 -8z"/>
<path d="M1855 2620 c-13 -5 -14 -9 -5 -9 8 0 24 4 35 9 13 5 14 9 5 9 -8 0
-24 -4 -35 -9z"/>
<path d="M1518 2603 c7 -3 16 -2 19 1 4 3 -2 6 -13 5 -11 0 -14 -3 -6 -6z"/>
<path d="M1718 2603 c12 -2 32 -2 45 0 12 2 2 4 -23 4 -25 0 -35 -2 -22 -4z"/>
<path d="M1588 2593 c12 -2 32 -2 45 0 12 2 2 4 -23 4 -25 0 -35 -2 -22 -4z"/>
<path d="M941 2684 c0 -11 3 -14 6 -6 3 7 2 16 -1 19 -3 4 -6 -2 -5 -13z"/>
<path d="M820 2660 c-6 -11 -8 -20 -6 -20 3 0 10 9 16 20 6 11 8 20 6 20 -3 0
-10 -9 -16 -20z"/>
<path d="M842 2645 c-17 -37 -14 -45 4 -12 9 16 14 31 11 33 -2 2 -9 -7 -15
-21z"/>
<path d="M795 2609 c-4 -6 -5 -12 -2 -15 2 -3 7 2 10 11 7 17 1 20 -8 4z"/>
<path d="M817 2567 c-3 -19 -2 -49 2 -68 6 -27 8 -21 8 34 0 37 -1 67 -2 67
-1 0 -5 -15 -8 -33z"/>
<path d="M752 2565 c0 -16 2 -22 5 -12 2 9 2 23 0 30 -3 6 -5 -1 -5 -18z"/>
<path d="M743 2485 c0 -27 2 -38 4 -22 2 15 2 37 0 50 -2 12 -4 0 -4 -28z"/>
<path d="M772 2495 c0 -16 2 -22 5 -12 2 9 2 23 0 30 -3 6 -5 -1 -5 -18z"/>
<path d="M772 2420 c0 -14 2 -19 5 -12 2 6 2 18 0 25 -3 6 -5 1 -5 -13z"/>
<path d="M832 2285 c0 -16 2 -22 5 -12 2 9 2 23 0 30 -3 6 -5 -1 -5 -18z"/>
<path d="M1708 2513 c7 -3 16 -2 19 1 4 3 -2 6 -13 5 -11 0 -14 -3 -6 -6z"/>
<path d="M1558 2503 c7 -3 16 -2 19 1 4 3 -2 6 -13 5 -11 0 -14 -3 -6 -6z"/>
<path d="M680 2334 c0 -10 5 -26 10 -34 8 -11 9 -7 4 15 -8 37 -14 45 -14 19z"/>
<path d="M612 2315 c0 -11 4 -31 8 -45 6 -20 8 -21 8 -5 0 11 -4 31 -8 45 -6
20 -8 21 -8 5z"/>
<path d="M630 2233 c0 -15 42 -124 46 -120 4 4 -35 119 -42 126 -2 2 -4 -1 -4
-6z"/>
<path d="M1260 2420 c-8 -5 -10 -10 -5 -10 6 0 17 5 25 10 8 5 11 10 5 10 -5
0 -17 -5 -25 -10z"/>
<path d="M550 1999 c0 -13 5 -31 10 -39 7 -11 8 -5 4 20 -8 43 -14 51 -14 19z"/>
<path d="M570 1931 c0 -6 4 -13 10 -16 6 -3 7 1 4 9 -7 18 -14 21 -14 7z"/>
<path d="M470 1791 c0 -6 4 -13 10 -16 6 -3 7 1 4 9 -7 18 -14 21 -14 7z"/>
<path d="M500 1740 c6 -11 13 -20 16 -20 2 0 0 9 -6 20 -6 11 -13 20 -16 20
-2 0 0 -9 6 -20z"/>
<path d="M1129 1583 c-13 -16 -12 -17 4 -4 9 7 17 15 17 17 0 8 -8 3 -21 -13z"/>
<path d="M1084 1548 l-19 -23 23 19 c21 18 27 26 19 26 -2 0 -12 -10 -23 -22z"/>
<path d="M1007 1498 c-26 -17 -45 -33 -43 -35 5 -5 96 55 96 62 0 7 1 7 -53
-27z"/>
<path d="M2216 2335 c-67 -27 -141 -75 -210 -134 -41 -36 -53 -41 -96 -41 -31
0 -54 6 -64 16 -18 18 -21 40 -6 49 6 3 10 15 10 26 0 25 -30 25 -58 -1 -26
-24 -28 -47 -7 -70 14 -16 11 -19 -44 -39 -66 -24 -141 -93 -108 -99 28 -6 20
-28 -28 -82 -52 -59 -57 -88 -20 -132 29 -34 31 -57 9 -99 -20 -40 -15 -74 11
-74 14 0 23 11 32 37 7 21 26 50 43 65 25 23 31 37 34 81 2 28 -1 52 -5 52 -9
0 -11 -7 -13 -54 0 -16 -5 -31 -11 -32 -12 -5 -35 42 -35 72 0 49 91 138 135
132 21 -3 24 -21 10 -65 -6 -17 -3 -23 9 -23 26 0 56 37 56 70 0 17 6 46 14
65 21 49 106 98 106 62 0 -8 9 -22 20 -32 20 -18 19 -19 -45 -90 -36 -40 -65
-79 -65 -85 0 -12 132 -247 196 -347 l34 -53 63 0 c73 0 278 24 336 40 28 7
54 27 91 67 68 74 200 275 200 304 0 17 -198 366 -226 398 -4 4 -142 -22 -186
-35 -10 -3 -19 3 -23 16 -10 31 -46 60 -74 60 -14 0 -52 -11 -85 -25z m99 -6
c0 -8 -10 -14 -25 -15 -34 -1 -94 -21 -162 -56 -32 -15 -58 -26 -58 -24 0 10
126 79 175 97 55 20 70 20 70 -2z m39 -15 c11 -28 6 -69 -9 -91 -23 -33 -71
-64 -89 -57 -24 9 -19 31 9 50 14 9 23 19 20 22 -3 3 -13 -2 -22 -10 -22 -19
-148 -83 -183 -93 -14 -4 -33 -9 -44 -12 -12 -3 -16 -1 -12 6 4 6 15 11 24 11
47 1 249 128 273 172 12 22 25 23 33 2z m240 -41 c10 -21 61 -108 113 -194
l95 -156 -20 -39 c-23 -45 -140 -203 -194 -262 -30 -33 -49 -44 -100 -56 -124
-30 -334 -53 -355 -39 -6 5 -50 74 -96 155 -47 81 -94 160 -106 176 l-20 29
99 12 c210 26 309 47 336 72 44 41 234 297 234 315 0 4 -15 -13 -32 -38 -55
-76 -98 -119 -110 -112 -6 4 -8 3 -4 -4 6 -10 -47 -58 -92 -81 -18 -10 -26
-10 -38 0 -13 11 -11 15 14 31 27 17 82 87 82 104 0 4 -27 -19 -60 -50 -59
-56 -87 -65 -74 -23 11 35 101 114 119 104 18 -10 20 4 3 21 -7 7 -8 15 -2 21
8 7 94 31 159 45 11 2 23 4 26 5 3 0 13 -16 23 -36z m-873 -169 c-19 -8 -42
-19 -50 -26 -9 -6 -3 1 12 16 15 14 38 26 50 26 17 -1 15 -4 -12 -16z m331
-17 c6 -12 5 -17 -2 -17 -16 0 -50 19 -50 29 0 14 42 5 52 -12z m-19 -51 c-32
-17 -73 -72 -73 -96 0 -21 3 -22 73 -16 53 4 63 3 37 -4 -57 -14 -170 -24
-170 -13 0 17 132 153 142 147 6 -4 3 -11 -9 -18z m67 -6 c0 -5 -2 -10 -4 -10
-3 0 -8 5 -11 10 -3 6 -1 10 4 10 6 0 11 -4 11 -10z m-468 -81 c-17 -15 -37
-40 -46 -56 -10 -19 -15 -22 -16 -11 0 20 83 118 89 104 2 -5 -10 -22 -27 -37z"/>
<path d="M2290 2209 c0 -5 -4 -8 -9 -4 -5 3 -12 1 -15 -4 -4 -5 2 -8 11 -7 15
3 33 26 19 26 -3 0 -6 -5 -6 -11z"/>
<path d="M2514 2243 c-11 -16 -24 -35 -29 -43 -7 -12 -6 -13 6 -3 14 11 53 73
46 73 -2 0 -12 -12 -23 -27z"/>
<path d="M2429 2163 c-17 -20 -18 -23 -3 -10 11 9 23 15 26 12 2 -3 5 2 5 10
0 19 1 20 -28 -12z"/>
<path d="M2386 2132 c-3 -5 1 -9 9 -9 8 0 12 4 9 9 -3 4 -7 8 -9 8 -2 0 -6 -4
-9 -8z"/>
<path d="M2452 2069 c-13 -16 -19 -29 -14 -29 10 0 46 49 40 55 -2 1 -13 -11
-26 -26z"/>
<path d="M2460 1940 c0 -6 7 -10 15 -10 8 0 15 2 15 4 0 2 -7 6 -15 10 -8 3
-15 1 -15 -4z"/>
<path d="M2313 1902 c39 -40 36 -62 -8 -62 -19 0 -35 5 -35 11 0 7 10 9 27 4
23 -5 25 -4 14 9 -8 9 -10 16 -5 16 5 1 -2 7 -16 15 -33 19 -91 18 -219 -3
l-103 -17 41 -78 c48 -91 109 -184 140 -211 11 -10 18 -23 15 -27 -10 -17 75
-13 241 11 l130 19 68 73 c113 120 205 268 167 268 -6 0 -9 -6 -8 -12 2 -7 -3
-12 -10 -10 -8 1 -11 -2 -8 -7 7 -11 -52 -33 -67 -24 -5 3 -7 1 -4 -5 5 -6
-12 -13 -43 -17 -45 -6 -81 -25 -48 -25 9 0 9 -3 -2 -10 -26 -17 -42 -12 -35
10 5 15 3 18 -9 14 -23 -9 -86 15 -128 48 -21 16 -38 26 -38 23 0 -3 11 -29
25 -58 26 -53 20 -47 -27 29 -22 34 -33 44 -55 44 l-27 0 27 -28z"/>
<path d="M2495 1921 c-3 -5 -2 -12 3 -15 5 -3 9 1 9 9 0 17 -3 19 -12 6z"/>
<path d="M2538 1913 c12 -2 30 -2 40 0 9 3 -1 5 -23 4 -22 0 -30 -2 -17 -4z"/>
<path d="M2550 1896 c0 -2 8 -10 18 -17 15 -13 16 -12 3 4 -13 16 -21 21 -21
13z"/>
<path d="M1950 2215 c0 -8 7 -15 15 -15 8 0 15 7 15 15 0 8 -7 15 -15 15 -8 0
-15 -7 -15 -15z"/>
<path d="M1690 2160 c0 -5 5 -10 10 -10 6 0 10 5 10 10 0 6 -4 10 -10 10 -5 0
-10 -4 -10 -10z"/>
<path d="M1732 1941 c2 -7 7 -12 11 -12 12 1 9 15 -3 20 -7 2 -11 -2 -8 -8z"/>
<path d="M1623 1605 c-3 -9 -3 -30 -1 -48 6 -37 1 -57 -15 -57 -8 0 -7 4 1 12
7 7 12 16 12 21 0 5 -10 -2 -21 -17 -23 -30 -15 -51 16 -44 21 4 58 102 49
130 -7 22 -32 24 -41 3z"/>
<path d="M1462 1357 c-6 -6 -13 -24 -17 -39 -9 -36 -42 -65 -57 -50 -8 8 -19
5 -40 -13 -16 -14 -40 -25 -53 -25 -37 0 -38 -16 -2 -18 115 -7 119 -7 143 22
16 18 24 40 24 66 0 22 7 45 16 54 8 9 11 16 6 16 -5 0 -14 -6 -20 -13z"/>
<path d="M1380 1304 c0 -8 5 -12 10 -9 6 3 10 10 10 16 0 5 -4 9 -10 9 -5 0
-10 -7 -10 -16z"/>
<path d="M1092 1154 c4 -21 22 -23 26 -1 2 10 -3 17 -13 17 -10 0 -15 -6 -13
-16z"/>
<path d="M930 980 c0 -5 5 -10 10 -10 6 0 10 5 10 10 0 6 -4 10 -10 10 -5 0
-10 -4 -10 -10z"/>
<path d="M1598 670 c-15 -4 -44 -18 -65 -31 -20 -13 -49 -22 -65 -21 -15 1
-28 -2 -28 -8 0 -19 65 -10 112 15 73 39 127 30 115 -17 -12 -46 -42 -51 -332
-58 -268 -6 -271 -6 -340 -34 -62 -26 -155 -80 -155 -91 0 -2 26 9 58 24 212
104 451 116 822 41 161 -33 212 -37 229 -16 10 11 -1 13 -67 12 -77 -1 -162
23 -162 46 0 5 17 16 38 25 56 23 155 12 282 -34 92 -33 116 -37 195 -37 66 0
110 6 165 23 61 19 87 22 141 17 81 -8 127 5 59 17 -112 20 -165 19 -234 -2
-37 -12 -87 -21 -110 -21 -64 0 -179 33 -295 85 -57 25 -129 52 -159 60 -60
16 -160 18 -204 5z m257 -31 c66 -25 70 -35 5 -13 -25 9 -74 22 -110 29 l-65
14 57 -4 c32 -3 83 -15 113 -26z"/>
<path d="M1362 619 c2 -6 8 -10 13 -10 5 0 11 4 13 10 2 6 -4 11 -13 11 -9 0
-15 -5 -13 -11z"/>
<path d="M2290 615 c0 -8 7 -15 15 -15 8 0 15 7 15 15 0 8 -7 15 -15 15 -8 0
-15 -7 -15 -15z"/>
<path d="M2180 575 c0 -8 7 -15 15 -15 8 0 15 7 15 15 0 8 -7 15 -15 15 -8 0
-15 -7 -15 -15z"/>
</g>
</svg>
